<svg xmlns="http://www.w3.org/2000/svg" version="1.1" viewBox="-5.0 -10.0 110.0 135.0">
 <path d="m49.441 12.789h8.4102-0.003906c2.2461-0.003906 4.4062 0.86719 6.0156 2.4336 1.6016 1.5469 2.5039 3.6758 2.5 5.9023v38.828h27.273c0.35938 0 0.70703 0.14453 0.96484 0.39844 0.25391 0.25781 0.39844 0.60547 0.39844 0.96484v31.203c0 0.75-0.60938 1.3633-1.3633 1.3633h-63.391c-0.75391 0-1.3633-0.61328-1.3633-1.3633v-5.4961h-15.43c-2.2422 0-4.3906-0.89063-5.9766-2.4727-1.5859-1.5859-2.4766-3.7383-2.4766-5.9805v-57.383c-0.011719-2.2305 0.87109-4.375 2.4492-5.9531 1.5781-1.5742 3.7188-2.457 5.9492-2.4453h8.4023v-0.78125c0-0.75391 0.60938-1.3633 1.3633-1.3633h5.7695c1.1523-2.7383 3.832-4.5234 6.8047-4.5273 1.6211 0 3.1992 0.54687 4.4727 1.5547 0.99609 0.78125 1.7812 1.8047 2.2773 2.9727h5.5898-0.003906c0.36328 0 0.71094 0.14453 0.96484 0.39844 0.25781 0.25781 0.40234 0.60547 0.40234 0.96484zm-27.32 39.125 1.043 1.2852c0.23047 0.28125 0.55859 0.46094 0.91797 0.49609 0.35938 0.039063 0.71484-0.066406 0.99609-0.29687 0.0625-0.046876 0.11719-0.10547 0.17188-0.16406l2.0898-2.4062h-0.003906c0.47656-0.56641 0.40625-1.4141-0.15234-1.8984-0.5625-0.48438-1.4102-0.42969-1.9023 0.12109l-1.0273 1.1836-0.023437-0.027344c-0.47266-0.58203-1.3281-0.67188-1.9102-0.19531-0.58203 0.47266-0.67187 1.3281-0.19922 1.9102zm12.672 3.6406 17.477 0.003906c0.37109 0.007812 0.72656-0.12891 0.98828-0.38672 0.26563-0.25781 0.41406-0.60938 0.41406-0.97656 0-0.37109-0.14844-0.72266-0.41406-0.98047-0.26172-0.25391-0.61719-0.39453-0.98828-0.38672h-17.477c-0.36719-0.007813-0.72266 0.13281-0.98828 0.38672-0.26563 0.25781-0.41406 0.60938-0.41406 0.98047 0 0.36719 0.14844 0.71875 0.41406 0.97656 0.26562 0.25781 0.62109 0.39453 0.98828 0.38672zm0-4.3281 12.477 0.003907c0.36719 0.007812 0.72266-0.12891 0.98828-0.38672 0.26172-0.25781 0.41406-0.60938 0.41406-0.97656 0-0.36719-0.15234-0.72266-0.41406-0.97656-0.26562-0.25781-0.62109-0.39844-0.98828-0.38672h-12.477c-0.36719-0.011718-0.72266 0.12891-0.98828 0.38672-0.26563 0.25391-0.41406 0.60938-0.41406 0.97656 0 0.36719 0.14844 0.71875 0.41406 0.97656 0.26562 0.25781 0.62109 0.39453 0.98828 0.38672zm-12.184-7.1055c-2.6914 0.007812-4.8711 2.1875-4.8789 4.8789v4.2656c0.003906 2.6953 2.1836 4.8789 4.8789 4.8828h4.2656c1.2539 0 2.457-0.48438 3.3633-1.3477l0.089844-0.078125-0.003906-0.003906c0.91797-0.91016 1.4336-2.1523 1.4336-3.4453v-4.2734c0-1.293-0.51562-2.5352-1.4336-3.4492-0.91016-0.91797-2.1523-1.4336-3.4453-1.4375zm4.2656 2.7266h-4.2656c-1.1875 0.007813-2.1484 0.96484-2.1523 2.1523v4.2656c0.003907 1.1875 0.96484 2.1484 2.1523 2.1562h4.2656c0.54688 0 1.0703-0.20703 1.4688-0.57812l0.054688-0.058594h-0.003907c0.40625-0.40234 0.63281-0.94922 0.63672-1.5195v-4.2656c-0.003906-0.57031-0.23047-1.1172-0.63672-1.5195-0.40234-0.40625-0.94922-0.62891-1.5195-0.62891zm-4.7539-11.957 1.043 1.2812c0.23047 0.27734 0.55859 0.45703 0.91797 0.49609 0.35938 0.035156 0.71484-0.070313 0.99609-0.29688 0.0625-0.050782 0.11719-0.10547 0.17188-0.16797l2.0859-2.4023c0.47656-0.57031 0.40625-1.4141-0.15234-1.9023-0.5625-0.48438-1.4102-0.42969-1.9023 0.12109l-1.0273 1.1797-0.023437-0.027344v0.003906c-0.47266-0.58594-1.3281-0.67188-1.9102-0.19922-0.58203 0.47266-0.67187 1.3281-0.19922 1.9141zm12.672 3.6406h17.477c0.75391 0 1.3672-0.60938 1.3672-1.3633 0-0.75391-0.61328-1.3633-1.3672-1.3633h-17.477c-0.75391 0-1.3633 0.60937-1.3633 1.3633 0 0.75391 0.60937 1.3633 1.3633 1.3633zm0-4.3281h12.477c0.75391 0 1.3633-0.60938 1.3633-1.3633s-0.60937-1.3633-1.3633-1.3633h-12.477c-0.75391 0-1.3633 0.60938-1.3633 1.3633s0.60937 1.3633 1.3633 1.3633zm-12.184-7.1016c-2.6914 0.003907-4.875 2.1875-4.8789 4.8789v4.2656c0.003906 2.6953 2.1875 4.875 4.8789 4.8828h4.2656c2.6953-0.007812 4.875-2.1875 4.8828-4.8828v-4.2695c-0.007812-2.6914-2.1914-4.8711-4.8828-4.875zm4.2656 2.7266h-4.2656c-1.1875 0.003906-2.1484 0.96484-2.1523 2.1523v4.2656c0.003907 1.1875 0.96484 2.1484 2.1523 2.1523h4.2656c1.1875-0.003907 2.1484-0.96484 2.1562-2.1523v-4.2695c-0.007812-1.1875-0.96875-2.1484-2.1562-2.1523zm39.336 57h6.7344c0.75391 0 1.3633-0.61328 1.3633-1.3633 0-0.75391-0.60938-1.3672-1.3633-1.3672h-6.7344c-0.75391 0-1.3633 0.61328-1.3633 1.3672 0 0.75 0.60938 1.3633 1.3633 1.3633zm8.918-24.141v7.4531h5.3203v-7.457zm8.0469 0v8.8125c0 0.36328-0.14453 0.70703-0.39844 0.96484-0.25781 0.25391-0.60547 0.39844-0.96484 0.39844h-8.0469c-0.36328 0-0.71094-0.14062-0.96484-0.39844-0.25781-0.25391-0.40234-0.60156-0.40234-0.96484v-8.8164h-9.1016l0.003906 28.473h28.973v-28.473zm-19.539-2.7266v-38.836c0.003906-1.4883-0.59766-2.918-1.668-3.9531-1.1055-1.0703-2.582-1.6602-4.1211-1.6523h-8.4062v2.6367h8.4102l-0.003906-0.003906c0.80859-0.003906 1.5859 0.28906 2.1875 0.82422 0.61719 0.54297 0.96875 1.3281 0.96484 2.1484v38.828h2.6367zm-29.121 26.859h6.7344c0.75391 0 1.3633-0.60937 1.3633-1.3633 0-0.75391-0.60938-1.3633-1.3633-1.3633h-6.7344c-0.75 0-1.3633 0.60938-1.3633 1.3633 0 0.75391 0.61328 1.3633 1.3633 1.3633zm16.965-24.141v8.8203c0 0.36328-0.14062 0.70703-0.39844 0.96484-0.25391 0.25391-0.60156 0.39844-0.96484 0.39844h-8.0469c-0.35937 0-0.70703-0.14453-0.96484-0.39844-0.25391-0.25781-0.39844-0.60156-0.39844-0.96484v-8.8164h-9.1016v28.473h28.973v-28.473h-9.1016zm-8.0469 0v7.4531h5.3203v-7.4492zm14.84-2.7266v-38.828c0-0.046875-0.023438-0.09375-0.058594-0.125-0.10547-0.082031-0.23438-0.125-0.36719-0.11719h-8.4062v0.78125c-0.003906 0.75391-0.61328 1.3633-1.3672 1.3633h-24.906c-0.36328 0-0.71094-0.14062-0.96875-0.39844-0.25391-0.25781-0.39844-0.60156-0.39844-0.96484v-0.78125h-8.4023c-0.089844-0.011718-0.17969 0.015626-0.25391 0.070313-0.039062 0.050781-0.054687 0.10938-0.046875 0.17188v47.559h7.2773-0.003906c0.82031 0 1.6094 0.32812 2.1875 0.90625 0.03125 0.03125 0.0625 0.066406 0.089844 0.10156 0.52344 0.56641 0.81641 1.3125 0.81641 2.0859v7.2773l5.4258-0.019532-0.003906-17.719c0-0.75 0.61328-1.3633 1.3672-1.3633zm-29.391 21.801-6.6602 0.023438-0.125 0.007812-0.003906-0.003906c-0.36719 0-0.71875-0.14844-0.97656-0.41406l-10.34-10.34c-0.26562-0.25391-0.41406-0.60938-0.41406-0.97656v-48.926c-0.011719-0.80078 0.3125-1.5742 0.89062-2.1328 0.57422-0.54688 1.3438-0.84766 2.1406-0.83984h8.4062v-2.6328h-8.4023c-1.5039-0.011719-2.9531 0.58203-4.0195 1.6445-1.0625 1.0664-1.6562 2.5156-1.6445 4.0234v57.383c-0.003906 1.5195 0.60156 2.9766 1.6719 4.0508 1.0742 1.0742 2.5312 1.6797 4.0469 1.6797h15.43zm1.3242-68.469c-0.15234 0.058594-0.31641 0.089844-0.48438 0.089844h-5.1914v6.9258h22.18v-6.9297h-5.1914c-0.64844 0-1.2109-0.46094-1.3359-1.0977-0.27344-0.97266-0.85156-1.8359-1.6445-2.4648-0.80078-0.625-1.7852-0.96875-2.8008-0.96484-2.1094-0.003906-3.957 1.4141-4.5 3.4531-0.13281 0.49609-0.53125 0.87891-1.0312 0.98438zm-15.188 58.129 5.7148 5.7109-0.003906-5.3477c0-0.082032-0.023438-0.16406-0.074219-0.22656l-0.03125-0.03125c-0.070312-0.070312-0.16016-0.10547-0.25781-0.10547z" fill-rule="evenodd"/>
<text x="0.0" y="117.5" font-size="5.0" font-weight="bold" font-family="Arbeit Regular, Helvetica, Arial-Unicode, Arial, Sans-serif" fill="#000000">Created by udn</text><text x="0.0" y="122.5" font-size="5.0" font-weight="bold" font-family="Arbeit Regular, Helvetica, Arial-Unicode, Arial, Sans-serif" fill="#000000">from Noun Project</text></svg>